HIERARCHY
ROOT Hips
{
	OFFSET 0.000000 100.481300 0.000000
	CHANNELS 6 Xposition Yposition Zposition Xrotation Yrotation Zrotation
	JOINT Spine
	{
		OFFSET -0.279200 12.230698 -2.892100
		CHANNELS 3 Xrotation Yrotation Zrotation
		JOINT Spine1
		{
			OFFSET -0.325700 14.269203 -3.374200
			CHANNELS 3 Xrotation Yrotation Zrotation
			JOINT Spine2
			{
				OFFSET -0.372300 16.307602 -0.352600
				CHANNELS 3 Xrotation Yrotation Zrotation
				JOINT Neck
				{
					OFFSET -0.418800 17.814194 8.416900
					CHANNELS 3 Xrotation Yrotation Zrotation
					JOINT Head
					{
						OFFSET 0.000000 7.031097 3.806800
						CHANNELS 3 Xrotation Yrotation Zrotation
						JOINT HeadTop_End
						{
							OFFSET 0.000000 24.646606 12.978600
							CHANNELS 3 Xrotation Yrotation Zrotation
							End Site
							{
								OFFSET 0.000000 27.854965 0.000000
							}
						}
					}
				}
				JOINT LeftShoulder
				{
					OFFSET 16.952999 14.495407 -7.737500
					CHANNELS 3 Xrotation Yrotation Zrotation
					JOINT LeftArm
					{
						OFFSET 9.308998 -2.777710 0.208600
						CHANNELS 3 Xrotation Yrotation Zrotation
						JOINT LeftForeArm
						{
							OFFSET 29.972298 0.000000 0.000000
							CHANNELS 3 Xrotation Yrotation Zrotation
							JOINT LeftHand
							{
								OFFSET 26.026505 0.000000 0.000000
								CHANNELS 3 Xrotation Yrotation Zrotation
								JOINT LeftHandThumb1
								{
									OFFSET 12.240501 -7.147949 9.207150
									CHANNELS 3 Xrotation Yrotation Zrotation
									JOINT LeftHandThumb2
									{
										OFFSET 4.138618 -2.389435 2.389433
										CHANNELS 3 Xrotation Yrotation Zrotation
										JOINT LeftHandThumb3
										{
											OFFSET 2.726913 -1.574387 1.574386
											CHANNELS 3 Xrotation Yrotation Zrotation
											JOINT LeftHandThumb4
											{
												OFFSET 3.941010 -2.275345 2.275342
												CHANNELS 3 Xrotation Yrotation Zrotation
												End Site
												{
													OFFSET -0.005798 5.087799 0.009903
												}
											}
										}
									}
								}
								JOINT LeftHandIndex1
								{
									OFFSET 24.424698 -1.985611 5.953459
									CHANNELS 3 Xrotation Yrotation Zrotation
									JOINT LeftHandIndex2
									{
										OFFSET 6.426697 0.000000 0.000000
										CHANNELS 3 Xrotation Yrotation Zrotation
										JOINT LeftHandIndex3
										{
											OFFSET 5.337898 0.000000 0.000000
											CHANNELS 3 Xrotation Yrotation Zrotation
											JOINT LeftHandIndex4
											{
												OFFSET 4.409401 0.000000 0.000000
												CHANNELS 3 Xrotation Yrotation Zrotation
												End Site
												{
													OFFSET 0.000000 4.409363 0.014373
												}
											}
										}
									}
								}
								JOINT LeftHandMiddle1
								{
									OFFSET 23.810104 0.000000 0.000000
									CHANNELS 3 Xrotation Yrotation Zrotation
									JOINT LeftHandMiddle2
									{
										OFFSET 7.176498 0.000000 0.000000
										CHANNELS 3 Xrotation Yrotation Zrotation
										JOINT LeftHandMiddle3
										{
											OFFSET 6.774902 0.000000 0.000000
											CHANNELS 3 Xrotation Yrotation Zrotation
											JOINT LeftHandMiddle4
											{
												OFFSET 5.403328 0.000000 0.000000
												CHANNELS 3 Xrotation Yrotation Zrotation
												End Site
												{
													OFFSET -0.027702 5.403244 0.017414
												}
											}
										}
									}
								}
								JOINT LeftHandRing1
								{
									OFFSET 22.908401 -0.839279 -6.020567
									CHANNELS 3 Xrotation Yrotation Zrotation
									JOINT LeftHandRing2
									{
										OFFSET 6.337502 0.000000 0.000000
										CHANNELS 3 Xrotation Yrotation Zrotation
										JOINT LeftHandRing3
										{
											OFFSET 5.779297 0.000000 0.000000
											CHANNELS 3 Xrotation Yrotation Zrotation
											JOINT LeftHandRing4
											{
												OFFSET 4.965698 0.000000 0.000000
												CHANNELS 3 Xrotation Yrotation Zrotation
												End Site
												{
													OFFSET 0.000000 4.965668 0.016186
												}
											}
										}
									}
								}
								JOINT LeftHandPinky1
								{
									OFFSET 20.037003 -1.530319 -10.950146
									CHANNELS 3 Xrotation Yrotation Zrotation
									JOINT LeftHandPinky2
									{
										OFFSET 5.254700 0.000000 0.000000
										CHANNELS 3 Xrotation Yrotation Zrotation
										JOINT LeftHandPinky3
										{
											OFFSET 4.810204 0.000000 0.000000
											CHANNELS 3 Xrotation Yrotation Zrotation
											JOINT LeftHandPinky4
											{
												OFFSET 3.647202 0.000000 0.000000
												CHANNELS 3 Xrotation Yrotation Zrotation
												End Site
												{
													OFFSET 0.000000 3.647186 0.011889
												}
											}
										}
									}
								}
							}
						}
					}
				}
				JOINT RightShoulder
				{
					OFFSET -15.141001 14.495407 -7.737500
					CHANNELS 3 Xrotation Yrotation Zrotation
					JOINT RightArm
					{
						OFFSET -9.308998 -2.777710 0.208500
						CHANNELS 3 Xrotation Yrotation Zrotation
						JOINT RightForeArm
						{
							OFFSET -29.972300 0.000000 0.000000
							CHANNELS 3 Xrotation Yrotation Zrotation
							JOINT RightHand
							{
								OFFSET -26.026505 0.000000 0.000000
								CHANNELS 3 Xrotation Yrotation Zrotation
								JOINT RightHandThumb1
								{
									OFFSET -12.240601 -7.148026 9.207092
									CHANNELS 3 Xrotation Yrotation Zrotation
									JOINT RightHandThumb2
									{
										OFFSET -4.138618 -2.389435 2.389433
										CHANNELS 3 Xrotation Yrotation Zrotation
										JOINT RightHandThumb3
										{
											OFFSET -2.726974 -1.574417 1.574421
											CHANNELS 3 Xrotation Yrotation Zrotation
											JOINT RightHandThumb4
											{
												OFFSET -3.941010 -2.275345 2.275343
												CHANNELS 3 Xrotation Yrotation Zrotation
												End Site
												{
													OFFSET 0.005814 5.087799 0.009927
												}
											}
										}
									}
								}
								JOINT RightHandIndex1
								{
									OFFSET -24.424698 -1.985657 5.953444
									CHANNELS 3 Xrotation Yrotation Zrotation
									JOINT RightHandIndex2
									{
										OFFSET -6.426697 0.000000 0.000000
										CHANNELS 3 Xrotation Yrotation Zrotation
										JOINT RightHandIndex3
										{
											OFFSET -5.337898 0.000000 0.000000
											CHANNELS 3 Xrotation Yrotation Zrotation
											JOINT RightHandIndex4
											{
												OFFSET -4.409401 0.000000 0.000000
												CHANNELS 3 Xrotation Yrotation Zrotation
												End Site
												{
													OFFSET 0.000000 4.409363 0.014408
												}
											}
										}
									}
								}
								JOINT RightHandMiddle1
								{
									OFFSET -23.810097 0.000000 0.000000
									CHANNELS 3 Xrotation Yrotation Zrotation
									JOINT RightHandMiddle2
									{
										OFFSET -7.176498 0.000000 0.000000
										CHANNELS 3 Xrotation Yrotation Zrotation
										JOINT RightHandMiddle3
										{
											OFFSET -6.774902 0.000000 0.000000
											CHANNELS 3 Xrotation Yrotation Zrotation
											JOINT RightHandMiddle4
											{
												OFFSET -5.403328 0.000000 0.000000
												CHANNELS 3 Xrotation Yrotation Zrotation
												End Site
												{
													OFFSET 0.027702 5.403244 0.017457
												}
											}
										}
									}
								}
								JOINT RightHandRing1
								{
									OFFSET -22.908302 -0.839325 -6.020576
									CHANNELS 3 Xrotation Yrotation Zrotation
									JOINT RightHandRing2
									{
										OFFSET -6.337502 0.000000 0.000000
										CHANNELS 3 Xrotation Yrotation Zrotation
										JOINT RightHandRing3
										{
											OFFSET -5.779297 0.000000 0.000000
											CHANNELS 3 Xrotation Yrotation Zrotation
											JOINT RightHandRing4
											{
												OFFSET -4.965698 0.000000 0.000000
												CHANNELS 3 Xrotation Yrotation Zrotation
												End Site
												{
													OFFSET 0.000000 4.965668 0.016226
												}
											}
										}
									}
								}
								JOINT RightHandPinky1
								{
									OFFSET -20.037003 -1.530334 -10.950259
									CHANNELS 3 Xrotation Yrotation Zrotation
									JOINT RightHandPinky2
									{
										OFFSET -5.254700 0.000000 0.000000
										CHANNELS 3 Xrotation Yrotation Zrotation
										JOINT RightHandPinky3
										{
											OFFSET -4.810204 0.000000 0.000000
											CHANNELS 3 Xrotation Yrotation Zrotation
											JOINT RightHandPinky4
											{
												OFFSET -3.647202 0.000000 0.000000
												CHANNELS 3 Xrotation Yrotation Zrotation
												End Site
												{
													OFFSET 0.000000 3.647186 0.011917
												}
											}
										}
									}
								}
							}
						}
					}
				}
			}
		}
	}
	JOINT LeftUpLeg
	{
		OFFSET 15.427100 -6.655098 0.678600
		CHANNELS 3 Xrotation Yrotation Zrotation
		JOINT LeftLeg
		{
			OFFSET 4.081073 -39.591068 13.024000
			CHANNELS 3 Xrotation Yrotation Zrotation
			JOINT LeftFoot
			{
				OFFSET -4.081074 -37.707932 -15.979700
				CHANNELS 3 Xrotation Yrotation Zrotation
				JOINT LeftToeBase
				{
					OFFSET 5.346399 -15.068900 20.645000
					CHANNELS 3 Xrotation Yrotation Zrotation
					JOINT LeftToe_End
					{
						OFFSET 2.754700 0.931300 11.300900
						CHANNELS 3 Xrotation Yrotation Zrotation
						End Site
						{
							OFFSET 0.000000 11.669021 0.000000
						}
					}
				}
			}
		}
	}
	JOINT RightUpLeg
	{
		OFFSET -15.569500 -6.655098 0.678600
		CHANNELS 3 Xrotation Yrotation Zrotation
		JOINT RightLeg
		{
			OFFSET -4.081825 -39.591045 13.023800
			CHANNELS 3 Xrotation Yrotation Zrotation
			JOINT RightFoot
			{
				OFFSET 4.081824 -37.707954 -15.979600
				CHANNELS 3 Xrotation Yrotation Zrotation
				JOINT RightToeBase
				{
					OFFSET -5.346400 -15.068900 20.645000
					CHANNELS 3 Xrotation Yrotation Zrotation
					JOINT RightToe_End
					{
						OFFSET -2.754700 0.931300 11.300900
						CHANNELS 3 Xrotation Yrotation Zrotation
						End Site
						{
							OFFSET 0.000000 11.669021 0.000000
						}
					}
				}
			}
		}
	}
}
MOTION
Frames: 4
Frame Time: 0.033333
0.288896 96.458237 -1.105982 3.101537 0.300104 -1.051319 0.672384 0.093307 0.069871 0.087298 0.137485 0.188493 0.087403 0.148523 0.209898 -7.694936 -1.427177 3.526589 -0.144206 -0.361260 -5.250458 0.000000 -0.000000 0.000000 3.777454 -9.663962 -6.804415 -0.863663 -21.557535 -70.190432 0.000003 -0.711169 0.000010 -17.269995 -10.192618 -5.313211 -6.116575 -3.608371 17.999273 18.471357 11.914273 -20.732657 0.802060 11.931307 28.513835 0.000001 -0.000000 0.000000 2.012764 8.306157 -21.839455 0.892947 3.110651 -32.026443 0.343011 1.976952 -19.684306 -0.000000 0.000001 -0.000001 1.497139 7.973390 -16.563542 1.506429 3.922827 -42.002310 0.245497 1.679756 -16.628707 0.000001 0.000002 -0.000000 1.414972 7.513434 -17.451231 1.176152 3.522456 -36.918822 0.128671 1.222352 -12.017828 0.000000 0.000002 -0.000002 2.179005 10.621482 -20.598356 0.270883 1.762496 -17.473967 0.059815 0.835925 -8.185672 -0.000000 -0.000001 -0.000001 4.235271 10.111794 12.401257 -7.718267 5.754321 64.583871 -0.000002 3.291279 0.000018 17.805630 1.402782 11.888401 3.587135 8.058582 -13.896709 14.608999 -5.250442 -4.224429 1.187915 7.957059 -44.899010 -0.000002 0.000001 0.000003 0.030465 -2.280754 7.183759 0.928076 -2.791786 36.770668 0.418233 -1.930652 24.443738 -0.000000 -0.000001 -0.000004 -0.520788 -0.508743 13.804298 0.745010 -2.528680 32.828047 0.341077 -1.751105 22.042284 0.000002 0.000003 -0.000001 -0.777158 -0.434344 17.877160 0.711038 -2.475271 32.049809 0.283934 -1.602811 20.089635 0.000000 -0.000000 -0.000002 -1.526439 1.186972 20.141099 0.143990 -1.150327 14.270052 0.080653 -0.863887 10.666970 0.000003 0.000002 0.000004 -9.521791 11.797812 10.953626 13.243727 1.296783 2.105564 -6.635466 1.657179 -8.522544 0.002910 -0.000008 -0.002619 0.000000 -0.000001 -0.000000 -8.389544 -8.422839 -7.923190 11.866556 -3.970542 -1.820721 -5.554653 -1.783791 8.712483 0.001017 0.000001 0.000985 0.000000 -0.000000 -0.000000 
0.281374 96.358353 -1.159940 3.177781 0.350319 -1.051370 0.684312 0.093617 0.065503 0.092336 0.145902 0.187696 0.092603 0.156558 0.207377 -7.295875 -1.508332 3.572969 0.676108 -0.685604 -5.326986 0.000000 0.000000 -0.000000 3.738019 -9.756677 -6.940817 -1.277844 -21.554368 -69.671734 -0.000004 -0.909773 -0.000014 -18.247626 -10.136206 -5.614735 -6.116575 -3.608375 17.999277 18.438277 11.869666 -20.683223 0.829498 11.865564 28.275875 0.000000 -0.000000 0.000000 2.023956 8.305889 -21.988057 0.887398 3.101779 -31.924086 0.342558 1.975686 -19.671257 0.000001 -0.000000 -0.000000 1.509923 7.987422 -16.677143 1.495566 3.910767 -41.843388 0.243839 1.674189 -16.571965 0.000000 -0.000001 0.000001 1.416829 7.523331 -17.430902 1.165174 3.507825 -36.739806 0.127863 1.218543 -11.979746 -0.000001 -0.000001 -0.000001 2.156237 10.559721 -20.608679 0.270660 1.761768 -17.466552 0.059617 0.834532 -8.171862 0.000001 0.000001 0.000002 4.178962 10.214657 12.592305 -8.114837 5.783110 64.286348 0.000000 3.589434 -0.000021 17.177357 1.496572 11.789033 3.432536 7.677751 -13.854613 14.653548 -5.703904 -4.372901 1.177894 8.090440 -43.683346 -0.000003 0.000002 0.000002 0.016021 -2.150164 7.030487 0.931559 -2.796453 36.842368 0.411291 -1.915311 24.236653 -0.000001 0.000003 -0.000000 -0.534601 -0.449034 13.793370 0.738412 -2.518438 32.678299 0.332467 -1.729691 21.758580 0.000000 -0.000003 -0.000001 -0.765616 -0.470115 17.874207 0.702713 -2.461947 31.856600 0.275141 -1.578584 19.773070 -0.000001 -0.000001 -0.000000 -1.503867 1.126028 20.133079 0.143416 -1.148060 14.241196 0.079942 -0.860090 10.619559 0.000003 -0.000003 0.000000 -9.806185 11.727676 10.989610 13.544393 1.266631 2.111837 -6.731415 1.659434 -8.545108 0.002316 0.000002 -0.002132 -0.000000 -0.000001 0.000000 -8.640057 -8.369437 -7.970067 12.182520 -4.037460 -1.805481 -5.682364 -1.797834 8.745445 0.000870 -0.000002 0.000850 0.000000 0.000000 -0.000000 
0.275490 96.259651 -1.224724 3.268176 0.411754 -1.045311 0.696787 0.107700 0.060642 0.108326 0.164506 0.185933 0.108889 0.174367 0.201789 -6.820971 -1.595483 3.611876 1.753973 -1.048368 -5.473207 -0.000000 -0.000000 0.000000 3.700388 -9.824231 -7.093417 -1.776413 -21.559591 -69.144027 0.000005 -1.111515 0.000011 -19.246956 -10.041863 -5.939236 -6.116580 -3.608368 17.999254 18.431849 11.870539 -20.657315 0.906435 11.885102 27.974735 0.000001 0.000000 0.000000 2.040600 8.310313 -22.182962 0.879716 3.089439 -31.781884 0.341896 1.973831 -19.651935 0.000000 -0.000000 -0.000001 1.525687 8.019541 -16.755405 1.484177 3.898040 -41.676093 0.241758 1.667191 -16.500728 -0.000001 -0.000003 0.000000 1.423571 7.544654 -17.429343 1.153287 3.491876 -36.545088 0.127804 1.218271 -11.977190 0.000001 0.000001 -0.000001 2.142235 10.513456 -20.642667 0.270497 1.761271 -17.461512 0.059338 0.832586 -8.152681 -0.000000 0.000000 -0.000001 4.129633 10.270452 12.786941 -8.770619 5.876170 63.990635 0.000003 3.288071 0.000021 16.759788 1.863613 11.739433 3.296293 7.204367 -13.885078 14.696509 -6.173223 -4.519289 1.161046 8.209010 -42.427964 -0.000002 -0.000000 0.000002 -0.005992 -1.948548 6.862862 0.909323 -2.766548 36.383957 0.403964 -1.898968 24.016552 0.000000 -0.000003 -0.000002 -0.549519 -0.378913 13.757875 0.731504 -2.507631 32.520682 0.323335 -1.706667 21.454384 -0.000000 0.000001 0.000004 -0.749093 -0.521302 17.869793 0.695294 -2.449972 31.683359 0.266537 -1.554450 19.458328 -0.000001 -0.000001 -0.000002 -1.461950 1.015403 20.108673 0.144484 -1.152248 14.294164 0.081175 -0.866682 10.701992 0.000000 -0.000002 0.000000 -10.114002 11.654800 11.011739 13.839706 1.225980 2.120646 -6.812943 1.663328 -8.559853 0.001626 -0.000002 -0.001613 0.000000 -0.000001 -0.000000 -8.912025 -8.312936 -8.026308 12.500748 -4.115821 -1.792359 -5.803725 -1.812565 8.783593 0.000691 -0.000001 0.000663 0.000000 -0.000000 -0.000000 
0.276516 96.167870 -1.306805 3.390860 0.490767 -1.035892 0.710077 0.131872 0.055902 0.128316 0.192229 0.183307 0.129148 0.200436 0.193610 -6.247008 -1.682435 3.647033 3.040541 -1.419939 -5.626830 -0.000000 0.000000 -0.000000 3.666761 -9.853793 -7.255329 -2.334395 -21.619212 -68.604052 -0.000002 -1.351450 -0.000010 -20.304418 -9.896725 -6.271560 -6.116568 -3.608370 17.999285 18.419864 11.864290 -20.618565 0.966982 11.874650 27.693460 0.000001 -0.000000 -0.000003 2.069975 8.333732 -22.422439 0.872546 3.077844 -31.648487 0.341023 1.971386 -19.626538 0.000000 0.000001 0.000000 1.543158 8.053847 -16.845905 1.472271 3.884651 -41.500632 0.239399 1.659219 -16.419531 0.000000 -0.000000 0.000001 1.420122 7.532917 -17.434188 1.142943 3.477898 -36.374821 0.128070 1.219522 -11.989588 -0.000001 0.000000 -0.000004 2.149861 10.516221 -20.698718 0.272673 1.768161 -17.531998 0.059226 0.831808 -8.145078 0.000001 0.000001 -0.000001 4.072645 10.370018 12.985854 -9.782471 6.090943 63.704601 0.000001 1.973217 0.000008 16.420330 2.699384 11.594822 3.174324 6.657319 -13.974308 14.746773 -6.808113 -4.619464 1.164394 8.365028 -41.197573 0.000000 -0.000000 0.000002 -0.031851 -1.719780 6.792474 0.903248 -2.758282 36.257987 0.396764 -1.882749 23.798515 -0.000000 -0.000004 0.000000 -0.556690 -0.353616 13.777104 0.723391 -2.494854 32.334430 0.314485 -1.683977 21.154998 -0.000000 0.000004 0.000001 -0.737663 -0.556758 17.866670 0.686412 -2.435523 31.474789 0.257677 -1.529135 19.128896 0.000001 -0.000002 -0.000001 -1.388780 0.819536 20.074283 0.145172 -1.154913 14.328053 0.082602 -0.874144 10.795205 -0.000001 -0.000003 0.000003 -10.462354 11.555540 11.009515 14.121682 1.199778 2.147400 -6.870063 1.663602 -8.575638 0.000855 -0.000010 -0.001028 -0.000000 0.000002 0.000000 -9.217564 -8.261659 -8.100288 12.798550 -4.202264 -1.764412 -5.901328 -1.826957 8.819087 0.000441 0.000007 0.000533 0.000000 -0.000000 -0.000000 
